<svg width="50" height="50" viewBox="0 0 50 50" fill="none" xmlns="http://www.w3.org/2000/svg">
<path d="M42 18.7059C41.8224 11.9179 34.7192 7 25.0906 7C24.0488 7 22.989 7.0583 21.9278 7.17606C14.2142 8.01203 8.29309 12.3504 7.1856 17.9656C6.39752 21.9682 8.04831 26.7765 13.5007 27.8608L14.2888 28.0147L14.7485 27.4947C14.9082 27.3186 16.3067 25.7062 16.0814 24.3723C15.9694 23.7054 15.453 23.295 15.1425 23.0525L14.9918 22.9347C14.138 21.8866 13.7813 20.1132 14.138 18.6243C15.0007 14.9598 18.9143 12.298 23.8682 12.0053C24.2159 11.9832 24.5622 11.9762 24.901 11.9762C30.034 11.9762 33.5057 14.3663 33.749 18.06C33.9744 21.6301 32.6042 24.8842 30.1638 26.5549L30.0041 26.6645C29.431 27.061 28.9817 27.3758 28.0429 27.4854C27.7996 27.5145 27.5548 27.5297 27.3294 27.5297C25.4533 27.5297 24.4294 26.5619 24.392 25.6094C24.3458 24.5391 24.8891 23.3661 25.4712 22.1198C26.1846 20.5877 26.925 18.9974 26.6533 17.3558C26.3623 15.6547 24.3831 14.329 22.1397 14.329C21.5681 14.329 20.986 14.4165 20.4218 14.5785C16.35 15.7876 15.7485 19.9511 17.2411 23.309C16.8844 24.6358 16.4247 25.9475 15.9366 27.3326C14.4828 31.5031 12.9708 35.8206 14.1156 40.8784L14.3694 42L15.7112 41.5674C17.0157 41.1419 17.7187 40.2045 18.3008 39.4268C18.4128 39.2799 18.5262 39.133 18.6292 38.9942C20.5337 36.6554 21.6039 33.863 22.4293 31.151C24.4846 32.3601 26.5861 32.7495 29.5803 32.493C37.8566 31.7888 42.1537 24.862 41.9955 18.7048L42 18.7059ZM19.6024 23.4338L19.668 23.1773L19.5456 22.9277C18.2695 20.2962 18.5605 17.0934 21.2532 16.2936C21.5442 16.2062 21.8442 16.1619 22.1353 16.1619C23.2338 16.1619 24.1995 16.7926 24.3309 17.5983C24.5368 18.8004 23.9174 20.105 23.2711 21.4983C22.6427 22.8473 21.986 24.2394 22.0517 25.6688C22.1263 27.4574 24.004 29.3555 27.325 29.3555C27.6727 29.3555 28.028 29.3334 28.3951 29.289C30.0191 29.099 30.9191 28.4752 31.5669 28.0205L31.7176 27.9179C34.6729 25.888 36.3536 22.0685 36.0909 17.9562C35.7715 12.987 30.6952 9.76092 23.704 10.1713C17.671 10.5304 12.9126 13.7845 11.8529 18.278C11.3932 20.2135 11.8723 22.4777 13.035 23.9071C13.1753 24.0762 13.335 24.2079 13.4858 24.3245C13.5888 24.412 13.7574 24.5367 13.7679 24.5962C13.8052 24.8457 13.6082 25.3587 13.2708 25.8647C9.87374 24.7361 8.91699 21.166 9.4991 18.2267C10.4379 13.4184 15.5605 9.69446 22.2517 8.96925C23.2084 8.86665 24.1652 8.81535 25.0951 8.81535C33.3908 8.81535 39.5178 12.9859 39.6581 18.7327C39.7984 24.0832 36.2237 30.0795 29.3459 30.673C28.8772 30.7092 28.4354 30.7313 28.0235 30.7313C25.5279 30.7313 24.1861 30.0574 22.5711 28.804L21.0696 27.6381L20.6099 29.2506C19.7277 32.3146 18.7053 35.5174 16.6784 38.0102C16.5471 38.1711 16.4157 38.3471 16.2844 38.5302C16.2381 38.5967 16.1903 38.6619 16.1336 38.7202C15.759 34.8062 16.9963 31.2583 18.2068 27.806C18.7038 26.3766 19.2292 24.8888 19.6053 23.4303L19.6024 23.4338Z" fill="white"/>
<rect x="1" y="1" width="48" height="48" rx="5" stroke="white" stroke-width="2"/>
</svg>
