<svg width="50" height="50" viewBox="0 0 50 50" fill="none" xmlns="http://www.w3.org/2000/svg">
<path d="M27.1725 19.2418H33.9293L33.5843 22.7773H27.1725H26.1725V23.7773V42H18.9352V23.7773V22.7773H17.9352H14V19.2418H17.9352H18.9352V18.2418V14.5273C18.9352 13.714 18.9509 12.7597 19.135 11.8312C19.3189 10.9033 19.6557 10.0849 20.2353 9.48647C21.6462 8.0395 23.5935 7 27.1725 7C30.2455 7 32.412 7.17137 33.7984 7.33959C34.1982 7.38811 34.5331 7.43636 34.8061 7.48015L34.0003 11.1947C33.8929 11.1767 33.7788 11.1582 33.6588 11.1397C32.882 11.0203 31.8346 10.8969 30.8041 10.8969C29.7786 10.8969 28.699 11.0359 27.8372 11.4483C26.9289 11.8831 26.1725 12.685 26.1725 13.9203V18.2418V19.2418H27.1725Z" stroke="white" stroke-width="2"/>
<rect x="1" y="1" width="48" height="48" rx="5" stroke="white" stroke-width="2"/>
</svg>
