<svg width="50" height="50" viewBox="0 0 50 50" fill="none" xmlns="http://www.w3.org/2000/svg">
<path fill-rule="evenodd" clip-rule="evenodd" d="M41.9327 11.1745C42.4363 8.48461 40.0246 6.24929 37.6866 7.23891L9.02677 19.3693C6.41577 20.4745 6.29943 24.4742 8.8409 25.7591L15.0822 28.9149L18.0513 40.2988C18.2055 40.8901 18.6338 41.348 19.1772 41.5023C19.7207 41.6564 20.298 41.4842 20.695 41.0493L25.2685 36.039L31.6752 41.3028C33.5349 42.8307 36.2134 41.7178 36.6805 39.2232L41.9327 11.1745ZM10.1688 22.6073L38.8286 10.4769L33.5764 38.5258L26.0705 32.3587C25.4398 31.8405 24.5571 31.9092 23.9996 32.52L22.0407 34.6659L22.6293 31.1198L34.162 18.4859C34.7234 17.8711 34.7826 16.8961 34.3008 16.2051C33.819 15.5141 32.9449 15.3203 32.2557 15.7517L16.3287 25.7218L10.1688 22.6073ZM18.2706 28.5042L19.2314 32.1879L19.6002 29.9654C19.6579 29.6181 19.8108 29.2983 20.0387 29.0487L23.5558 25.1959L18.2706 28.5042Z" fill="#0F0F0F" stroke="white" stroke-width="2"/>
<rect x="1" y="1" width="48" height="48" rx="5" stroke="white" stroke-width="2"/>
</svg>
